<?xml version="1.0" standalone="no"?>
<!DOCTYPE svg PUBLIC "-//W3C//DTD SVG 20010904//EN"
 "http://www.w3.org/TR/2001/REC-SVG-20010904/DTD/svg10.dtd">
<svg version="1.0" xmlns="http://www.w3.org/2000/svg"
 width="40pt" height="40pt" viewBox="0 0 500.000000 500.000000"
 preserveAspectRatio="xMidYMid meet"> 

<g transform="translate(0.000000,500.000000) scale(0.100000,-0.100000)"
fill="#5e220a" stroke="none">
<path d="M2392 4281 c-40 -5 -58 -13 -73 -31 -24 -32 -24 -34 5 -230 14 -91
32 -221 41 -290 21 -168 41 -260 63 -289 22 -30 104 -75 164 -91 23 -7 56 -19
71 -27 54 -27 52 -30 208 487 17 58 42 137 55 175 33 102 46 165 39 197 -9 37
-55 61 -160 82 -91 17 -334 28 -413 17z"/>
<path d="M1930 4166 c-234 -104 -444 -263 -471 -354 -16 -54 -2 -129 53 -292
66 -191 84 -200 401 -200 292 0 307 9 282 171 -7 46 -20 138 -30 204 -28 205
-66 447 -72 462 -6 15 -55 43 -75 43 -7 0 -47 -16 -88 -34z"/>
<path d="M3182 4082 c-13 -9 -59 -139 -112 -317 -36 -121 -81 -267 -129 -417
-37 -116 -38 -129 -7 -165 l24 -28 472 0 472 0 24 28 c13 15 24 39 24 52 0 43
-93 249 -159 355 -100 159 -281 347 -419 435 -9 6 -34 22 -55 38 -40 27 -106
37 -135 19z"/>
<path d="M1227 3542 c-9 -10 -17 -22 -17 -26 0 -4 -8 -20 -18 -34 -10 -15 -27
-49 -37 -77 -10 -27 -21 -54 -25 -60 -15 -20 -30 -82 -24 -98 3 -8 12 -18 20
-21 20 -8 213 85 219 106 7 19 -11 92 -40 168 -23 61 -49 74 -78 42z"/>
<path d="M2302 3218 c-19 -19 -14 -53 19 -127 43 -97 63 -104 176 -65 46 16
91 37 100 46 27 30 5 58 -68 84 -35 12 -95 34 -134 48 -81 30 -77 30 -93 14z"/>
<path d="M1390 3113 c-18 -6 -198 -90 -221 -102 -8 -5 -39 -21 -68 -36 -33
-17 -57 -38 -63 -54 -6 -16 -8 -89 -4 -196 10 -315 48 -377 257 -424 30 -7
108 -28 174 -46 189 -53 272 -75 390 -106 61 -15 151 -39 200 -52 50 -13 143
-38 209 -56 123 -32 184 -38 217 -21 28 16 31 3 -51 215 -15 39 -32 84 -38
100 -5 17 -19 53 -30 80 -11 28 -34 88 -52 135 -31 82 -58 152 -134 346 -20
51 -36 96 -36 101 0 5 -13 27 -29 48 -52 70 -75 74 -411 74 -162 0 -302 -3
-310 -6z"/>
<path d="M2836 2939 c-10 -6 -55 -25 -100 -41 -223 -82 -234 -87 -256 -113
-22 -26 -14 -86 24 -173 20 -46 36 -88 36 -94 0 -5 11 -33 24 -61 12 -29 31
-77 41 -107 10 -30 21 -59 25 -65 4 -5 17 -40 29 -76 32 -97 73 -156 124 -179
39 -18 69 -20 497 -20 516 0 513 0 565 79 30 45 100 226 120 311 47 203 57
262 58 373 l2 119 -33 29 -32 29 -553 0 c-375 -1 -558 -4 -571 -11z"/>
<path d="M1238 2092 c-24 -5 -23 -48 2 -92 11 -19 34 -60 51 -90 16 -30 40
-71 52 -91 99 -162 91 -150 205 -299 99 -130 126 -160 145 -160 21 0 51 44
108 155 25 49 72 139 103 199 61 119 68 154 34 186 -23 21 -52 31 -293 95 -77
21 -185 50 -240 65 -114 32 -143 37 -167 32z"/>
<path d="M2195 1794 c-22 -12 -42 -41 -75 -105 -25 -48 -63 -122 -85 -164
-174 -329 -179 -341 -166 -373 13 -30 255 -274 385 -387 38 -33 83 -72 100
-87 59 -52 65 -57 83 -66 31 -16 86 -21 130 -13 35 7 69 31 184 131 116 101
372 351 497 485 40 43 62 81 62 106 0 13 -36 89 -80 171 -44 81 -80 151 -80
154 0 3 -16 32 -36 64 -59 96 -51 95 -504 97 -332 2 -389 0 -415 -13z"/>
<path d="M3340 1792 l-25 -20 59 -114 c32 -62 63 -119 69 -125 16 -22 55 -15
74 13 10 14 29 40 43 57 65 82 75 129 36 174 -23 26 -29 28 -127 31 -93 4
-107 2 -129 -16z"/>
</g>
</svg>
